<svg width="28" height="22" viewBox="0 0 28 22" fill="none" xmlns="http://www.w3.org/2000/svg">
<path d="M16.6999 0H16.748C17.0667 0 17.3724 0.128769 17.5977 0.35798C17.8231 0.587192 17.9497 0.898069 17.9497 1.22222C17.9497 1.54638 17.8231 1.85725 17.5977 2.08646C17.3724 2.31568 17.0667 2.44444 16.748 2.44444C14.6778 2.44444 13.1027 2.44444 11.8481 2.54711C10.5903 2.64978 9.79232 2.84533 9.22671 3.1517C8.05516 3.79749 7.11457 4.80374 6.53962 6.02637C6.23518 6.66844 6.05252 7.46044 5.95798 8.6957C5.86185 9.94074 5.86185 11.528 5.86185 13.7378V13.917L7.65644 12.0919C7.88425 11.876 8.18556 11.7584 8.49689 11.764C8.80822 11.7696 9.10526 11.8979 9.32544 12.1218C9.54562 12.3457 9.67174 12.6478 9.67724 12.9645C9.68273 13.2811 9.56717 13.5876 9.35489 13.8193L5.50934 17.7304C5.3942 17.8474 5.25689 17.9394 5.10573 18.0008C4.95458 18.0622 4.79273 18.0918 4.63001 18.0877C4.46728 18.0836 4.30708 18.0459 4.15911 17.9769C4.01115 17.9079 3.8785 17.8091 3.76922 17.6864L0.290597 13.7753C0.0861886 13.5335 -0.0172483 13.2201 0.00235339 12.9019C0.0219551 12.5837 0.163043 12.2859 0.395519 12.072C0.627994 11.8581 0.933452 11.745 1.24672 11.757C1.56 11.7689 1.85628 11.9049 2.07237 12.1359L3.45837 13.6938V13.6856C3.45837 11.5394 3.45837 9.856 3.56252 8.50504C3.66828 7.12963 3.88619 5.99215 4.3781 4.95896C5.17468 3.27276 6.47532 1.88607 8.09387 0.997333C9.09532 0.451407 10.289 0.221629 11.6574 0.110815C13.0194 -2.67437e-07 14.6874 0 16.6999 0ZM23.3687 3.91111C23.5318 3.91521 23.6923 3.95301 23.8405 4.02221C23.9887 4.09141 24.1215 4.19056 24.2308 4.31363L27.7094 8.22474C27.9138 8.46648 28.0172 8.77988 27.9976 9.0981C27.978 9.41631 27.837 9.71413 27.6045 9.92803C27.372 10.1419 27.0665 10.255 26.7533 10.243C26.44 10.2311 26.1437 10.0951 25.9276 9.86415L24.5416 8.30622V8.31437C24.5416 10.4606 24.5416 12.144 24.4375 13.495C24.3317 14.8704 24.1154 16.0079 23.6219 17.041C22.8253 18.7272 21.5247 20.1139 19.9061 21.0027C18.9047 21.5486 17.711 21.7784 16.3426 21.8892C14.9806 22 13.3126 22 11.3017 22H11.2536C10.9349 22 10.6292 21.8712 10.4039 21.642C10.1785 21.4128 10.0519 21.1019 10.0519 20.7778C10.0519 20.4536 10.1785 20.1427 10.4039 19.9135C10.6292 19.6843 10.9349 19.5556 11.2536 19.5556C13.3222 19.5556 14.8973 19.5556 16.1519 19.4529C17.4097 19.3502 18.2077 19.1547 18.7733 18.8467C19.9446 18.2013 20.8852 17.1957 21.4604 15.9736C21.7648 15.3316 21.9475 14.5396 22.042 13.3043C22.1382 12.0593 22.1382 10.472 22.1382 8.26222V8.08296L20.3436 9.90815C20.1158 10.124 19.8144 10.2416 19.5031 10.236C19.1918 10.2304 18.8947 10.1021 18.6746 9.8782C18.4544 9.65427 18.3283 9.35216 18.3228 9.03552C18.3173 8.71888 18.4328 8.41243 18.6451 8.18074L22.4907 4.26963C22.6056 4.15255 22.7426 4.06041 22.8935 3.99878C23.0445 3.93716 23.2061 3.90733 23.3687 3.91111Z" fill="white"/>
</svg>
