<svg width="27" height="27" viewBox="0 0 27 27" fill="none" xmlns="http://www.w3.org/2000/svg">
<path d="M13.777 14.558L16.7906 12.7366L19.8041 14.558L19.0094 11.1139L21.6587 8.82887L18.1815 8.53083L16.7906 5.28544L15.3997 8.53083L11.9225 8.82887L14.5718 11.1139L13.777 14.558ZM14.4062 23.1682H21.8242C21.6697 23.7422 21.4048 24.2058 21.0294 24.5591C20.6541 24.9123 20.1684 25.1331 19.5723 25.2214L5.13367 26.9765C4.40511 27.0869 3.74831 26.9158 3.16326 26.4632C2.5782 26.0107 2.24152 25.4201 2.15321 24.6915L0.398054 10.2198C0.309744 9.4912 0.486364 8.83991 0.927913 8.2659C1.36946 7.69188 1.95452 7.36072 2.68307 7.27241L4.20642 7.07371V9.72301L3.01423 9.88859L4.80251 24.3604L14.4062 23.1682ZM9.50501 20.5189C8.77645 20.5189 8.15276 20.2595 7.63394 19.7407C7.11512 19.2218 6.85571 18.5982 6.85571 17.8696V3.29847C6.85571 2.56991 7.11512 1.94622 7.63394 1.4274C8.15276 0.90858 8.77645 0.64917 9.50501 0.64917H24.0761C24.8047 0.64917 25.4284 0.90858 25.9472 1.4274C26.466 1.94622 26.7254 2.56991 26.7254 3.29847V17.8696C26.7254 18.5982 26.466 19.2218 25.9472 19.7407C25.4284 20.2595 24.8047 20.5189 24.0761 20.5189H9.50501ZM9.50501 17.8696H24.0761V3.29847H9.50501V17.8696Z" fill="white"/>
</svg>
