<svg width="14" height="13" viewBox="0 0 14 13" fill="none" xmlns="http://www.w3.org/2000/svg">
<g clip-path="url(#clip0_1518_441)">
<path d="M11.3333 0.956543H2.66667C2.09203 0.956543 1.54093 1.16726 1.1346 1.54233C0.728273 1.9174 0.5 2.42611 0.5 2.95654L0.5 8.95654C0.5 9.48698 0.728273 9.99568 1.1346 10.3708C1.54093 10.7458 2.09203 10.9565 2.66667 10.9565H4.2375L6.64846 12.838C6.74626 12.9144 6.87025 12.9564 6.99837 12.9564C7.1265 12.9564 7.25049 12.9144 7.34829 12.838L9.7625 10.9565H11.3333C11.908 10.9565 12.4591 10.7458 12.8654 10.3708C13.2717 9.99568 13.5 9.48698 13.5 8.95654V2.95654C13.5 2.42611 13.2717 1.9174 12.8654 1.54233C12.4591 1.16726 11.908 0.956543 11.3333 0.956543V0.956543ZM12.4167 8.95654C12.4167 9.22176 12.3025 9.47611 12.0994 9.66365C11.8962 9.85119 11.6207 9.95654 11.3333 9.95654H9.7625C9.50645 9.95662 9.2587 10.0404 9.06321 10.193L7 11.8015L4.93788 10.193C4.7421 10.0402 4.49392 9.95638 4.2375 9.95654H2.66667C2.37935 9.95654 2.1038 9.85119 1.90063 9.66365C1.69747 9.47611 1.58333 9.22176 1.58333 8.95654V2.95654C1.58333 2.69133 1.69747 2.43697 1.90063 2.24944C2.1038 2.0619 2.37935 1.95654 2.66667 1.95654H11.3333C11.6207 1.95654 11.8962 2.0619 12.0994 2.24944C12.3025 2.43697 12.4167 2.69133 12.4167 2.95654V8.95654Z" fill="#B3B3B3"/>
<path d="M4.29167 4.4566H7C7.14366 4.4566 7.28143 4.40392 7.38302 4.31016C7.4846 4.21639 7.54167 4.08921 7.54167 3.9566C7.54167 3.824 7.4846 3.69682 7.38302 3.60305C7.28143 3.50928 7.14366 3.4566 7 3.4566H4.29167C4.14801 3.4566 4.01023 3.50928 3.90865 3.60305C3.80707 3.69682 3.75 3.824 3.75 3.9566C3.75 4.08921 3.80707 4.21639 3.90865 4.31016C4.01023 4.40392 4.14801 4.4566 4.29167 4.4566Z" fill="#B3B3B3"/>
<path d="M9.70833 5.45654H4.29167C4.14801 5.45654 4.01023 5.50922 3.90865 5.60299C3.80707 5.69676 3.75 5.82393 3.75 5.95654C3.75 6.08915 3.80707 6.21633 3.90865 6.31009C4.01023 6.40386 4.14801 6.45654 4.29167 6.45654H9.70833C9.85199 6.45654 9.98977 6.40386 10.0914 6.31009C10.1929 6.21633 10.25 6.08915 10.25 5.95654C10.25 5.82393 10.1929 5.69676 10.0914 5.60299C9.98977 5.50922 9.85199 5.45654 9.70833 5.45654Z" fill="#B3B3B3"/>
<path d="M9.70833 7.45648H4.29167C4.14801 7.45648 4.01023 7.50916 3.90865 7.60293C3.80707 7.6967 3.75 7.82388 3.75 7.95648C3.75 8.08909 3.80707 8.21627 3.90865 8.31004C4.01023 8.40381 4.14801 8.45649 4.29167 8.45649H9.70833C9.85199 8.45649 9.98977 8.40381 10.0914 8.31004C10.1929 8.21627 10.25 8.08909 10.25 7.95648C10.25 7.82388 10.1929 7.6967 10.0914 7.60293C9.98977 7.50916 9.85199 7.45648 9.70833 7.45648Z" fill="#B3B3B3"/>
</g>
<defs>
<clipPath id="clip0_1518_441">
<rect width="13" height="12" fill="white" transform="translate(0.5 0.956543)"/>
</clipPath>
</defs>
</svg>
