<svg width="13" height="12" viewBox="0 0 13 12" fill="none" xmlns="http://www.w3.org/2000/svg">
<mask id="mask0_6_12" style="mask-type:luminance" maskUnits="userSpaceOnUse" x="0" y="0" width="13" height="12">
<path d="M13 0H0V12H13V0Z" fill="white"/>
</mask>
<g mask="url(#mask0_6_12)">
<path d="M10.8333 0H2.16667C1.59203 0 1.04093 0.210717 0.6346 0.585787C0.228273 0.960857 0 1.46957 0 2V8C0 8.53044 0.228273 9.03914 0.6346 9.41426C1.04093 9.78926 1.59203 9.99996 2.16667 9.99996H3.7375L6.14846 11.8815C6.24626 11.9579 6.37025 11.9999 6.49837 11.9999C6.6265 11.9999 6.75049 11.9579 6.84829 11.8815L9.2625 9.99996H10.8333C11.408 9.99996 11.9591 9.78926 12.3654 9.41426C12.7717 9.03914 13 8.53044 13 8V2C13 1.46957 12.7717 0.960857 12.3654 0.585787C11.9591 0.210717 11.408 0 10.8333 0ZM11.9167 8C11.9167 8.26522 11.8025 8.51957 11.5994 8.70711C11.3962 8.89465 11.1207 9 10.8333 9H9.2625C9.00645 9.00008 8.7587 9.08386 8.56321 9.23646L6.5 10.845L4.43788 9.23646C4.2421 9.08366 3.99392 8.99984 3.7375 9H2.16667C1.87935 9 1.6038 8.89465 1.40063 8.70711C1.19747 8.51957 1.08333 8.26522 1.08333 8V2C1.08333 1.73479 1.19747 1.48043 1.40063 1.2929C1.6038 1.10536 1.87935 0.999997 2.16667 0.999997H10.8333C11.1207 0.999997 11.3962 1.10536 11.5994 1.2929C11.8025 1.48043 11.9167 1.73479 11.9167 2V8Z" fill="white"/>
<path d="M3.79167 3.50006H6.5C6.64366 3.50006 6.78143 3.44738 6.88302 3.35362C6.9846 3.25985 7.04167 3.13267 7.04167 3.00006C7.04167 2.86746 6.9846 2.74028 6.88302 2.64651C6.78143 2.55274 6.64366 2.50006 6.5 2.50006H3.79167C3.64801 2.50006 3.51023 2.55274 3.40865 2.64651C3.30707 2.74028 3.25 2.86746 3.25 3.00006C3.25 3.13267 3.30707 3.25985 3.40865 3.35362C3.51023 3.44738 3.64801 3.50006 3.79167 3.50006Z" fill="white"/>
<path d="M9.20833 4.5H3.79167C3.64801 4.5 3.51023 4.55268 3.40865 4.64645C3.30707 4.74022 3.25 4.86739 3.25 5C3.25 5.13261 3.30707 5.25979 3.40865 5.35355C3.51023 5.44732 3.64801 5.5 3.79167 5.5H9.20833C9.35199 5.5 9.48977 5.44732 9.5914 5.35355C9.6929 5.25979 9.75 5.13261 9.75 5C9.75 4.86739 9.6929 4.74022 9.5914 4.64645C9.48977 4.55268 9.35199 4.5 9.20833 4.5Z" fill="white"/>
<path d="M9.20833 6.49994H3.79167C3.64801 6.49994 3.51023 6.55262 3.40865 6.64639C3.30707 6.74016 3.25 6.86734 3.25 6.99994C3.25 7.13255 3.30707 7.25973 3.40865 7.3535C3.51023 7.44727 3.64801 7.49995 3.79167 7.49995H9.20833C9.35199 7.49995 9.48977 7.44727 9.5914 7.3535C9.6929 7.25973 9.75 7.13255 9.75 6.99994C9.75 6.86734 9.6929 6.74016 9.5914 6.64639C9.48977 6.55262 9.35199 6.49994 9.20833 6.49994Z" fill="white"/>
</g>
</svg>
