<svg width="31" height="30" viewBox="0 0 31 30" fill="none" xmlns="http://www.w3.org/2000/svg">
<path d="M23.5407 5.35645C22.569 5.35645 21.7812 6.14416 21.7812 7.11502C21.7812 8.08673 22.569 8.87444 23.5407 8.87444C24.5115 8.87444 25.2992 8.08673 25.2992 7.11502C25.2992 6.14416 24.5115 5.35645 23.5407 5.35645Z" fill="#E8E8E8"/>
<path d="M15.7227 19.7327C13.1128 19.7327 10.9896 17.6096 10.9896 15.0005C10.9896 12.3907 13.1128 10.2675 15.7227 10.2675C18.3317 10.2675 20.4549 12.3907 20.4549 15.0005C20.4549 17.6096 18.3317 19.7327 15.7227 19.7327ZM15.7227 7.61182C11.6485 7.61182 8.33398 10.9263 8.33398 15.0005C8.33398 19.0739 11.6485 22.3884 15.7227 22.3884C19.7961 22.3884 23.1106 19.0739 23.1106 15.0005C23.1106 10.9263 19.7961 7.61182 15.7227 7.61182Z" fill="#E8E8E8"/>
<path d="M9.61039 2.82271C6.19754 2.82271 3.42147 5.59878 3.42147 9.01163V20.9892C3.42147 24.4021 6.19754 27.1782 9.61039 27.1782H21.588C25.0008 27.1782 27.7778 24.4021 27.7778 20.9892V9.01163C27.7778 5.59878 25.0008 2.82271 21.588 2.82271H9.61039ZM21.588 30.0009H9.61039C4.64078 30.0009 0.599609 25.958 0.599609 20.9892V9.01163C0.599609 4.04201 4.64078 0 9.61039 0H21.588C26.5568 0 30.5996 4.04201 30.5996 9.01163V20.9892C30.5996 25.958 26.5568 30.0009 21.588 30.0009Z" fill="#E8E8E8"/>
</svg>
