<svg width="25" height="24" viewBox="0 0 25 24" fill="none" xmlns="http://www.w3.org/2000/svg">
<path d="M5.3 20.6383L2.54 23.6051C2.16 24.0136 1.7248 24.1052 1.2344 23.8799C0.744002 23.6546 0.499202 23.2512 0.500002 22.6699V2.57979C0.500002 1.87035 0.735202 1.26324 1.2056 0.758459C1.676 0.25368 2.2408 0.000859931 2.9 0H22.1C22.76 0 23.3252 0.25282 23.7956 0.758459C24.266 1.2641 24.5008 1.87121 24.5 2.57979V18.0586C24.5 18.768 24.2652 19.3755 23.7956 19.8812C23.326 20.3868 22.7608 20.6392 22.1 20.6383H5.3ZM4.28 18.0586H22.1V2.57979H2.9V19.5097L4.28 18.0586ZM6.5 15.4788H13.7C14.04 15.4788 14.3252 15.3549 14.5556 15.1073C14.786 14.8596 14.9008 14.5535 14.9 14.1889C14.8992 13.8243 14.784 13.5181 14.5544 13.2705C14.3248 13.0228 14.04 12.899 13.7 12.899H6.5C6.16 12.899 5.8752 13.0228 5.6456 13.2705C5.416 13.5181 5.3008 13.8243 5.3 14.1889C5.2992 14.5535 5.4144 14.86 5.6456 15.1086C5.8768 15.3571 6.1616 15.4805 6.5 15.4788ZM6.5 11.6091H18.5C18.84 11.6091 19.1252 11.4852 19.3556 11.2376C19.586 10.9899 19.7008 10.6838 19.7 10.3192C19.6992 9.95456 19.584 9.64843 19.3544 9.40077C19.1248 9.15311 18.84 9.02928 18.5 9.02928H6.5C6.16 9.02928 5.8752 9.15311 5.6456 9.40077C5.416 9.64843 5.3008 9.95456 5.3 10.3192C5.2992 10.6838 5.4144 10.9904 5.6456 11.2389C5.8768 11.4874 6.1616 11.6108 6.5 11.6091ZM6.5 7.73938H18.5C18.84 7.73938 19.1252 7.61555 19.3556 7.36789C19.586 7.12023 19.7008 6.81409 19.7 6.44948C19.6992 6.08487 19.584 5.77874 19.3544 5.53108C19.1248 5.28342 18.84 5.15959 18.5 5.15959H6.5C6.16 5.15959 5.8752 5.28342 5.6456 5.53108C5.416 5.77874 5.3008 6.08487 5.3 6.44948C5.2992 6.81409 5.4144 7.12066 5.6456 7.36918C5.8768 7.6177 6.1616 7.7411 6.5 7.73938Z" fill="white"/>
</svg>
