<svg width="24" height="24" viewBox="0 0 24 24" fill="none" xmlns="http://www.w3.org/2000/svg">
<path d="M23.58 0.289336C23.4492 0.177089 23.2957 0.0943383 23.1301 0.0467143C22.9644 -0.000909638 22.7905 -0.0122888 22.62 0.0133516L7.02 2.41322C6.73591 2.45631 6.47672 2.59991 6.28954 2.81791C6.10236 3.03591 5.99962 3.31383 6 3.60115V16.0204C5.43932 15.7466 4.82399 15.603 4.2 15.6005C3.36932 15.6005 2.55729 15.8468 1.86661 16.3083C1.17592 16.7697 0.637596 17.4256 0.319708 18.1931C0.00181979 18.9605 -0.0813542 19.8049 0.0807037 20.6196C0.242762 21.4342 0.642773 22.1826 1.23015 22.7699C1.81753 23.3573 2.5659 23.7573 3.38062 23.9193C4.19534 24.0813 5.03982 23.9982 5.80727 23.6803C6.57472 23.3624 7.23067 22.8241 7.69217 22.1335C8.15368 21.4429 8.4 20.6309 8.4 19.8002V10.6328L21.6 8.60487V13.6206C21.0393 13.3467 20.424 13.2032 19.8 13.2006C18.9693 13.2006 18.1573 13.4469 17.4666 13.9084C16.7759 14.3699 16.2376 15.0258 15.9197 15.7932C15.6018 16.5606 15.5186 17.405 15.6807 18.2197C15.8428 19.0344 16.2428 19.7827 16.8302 20.3701C17.4175 20.9574 18.1659 21.3574 18.9806 21.5194C19.7953 21.6815 20.6398 21.5983 21.4073 21.2804C22.1747 20.9626 22.8307 20.4243 23.2922 19.7336C23.7537 19.043 24 18.231 24 17.4004V1.20128C24 1.02797 23.9625 0.856701 23.89 0.699274C23.8175 0.541846 23.7117 0.401993 23.58 0.289336ZM4.2 21.6001C3.844 21.6001 3.49598 21.4946 3.19998 21.2968C2.90397 21.099 2.67326 20.8179 2.53702 20.489C2.40078 20.1601 2.36513 19.7982 2.43459 19.4491C2.50404 19.0999 2.67547 18.7792 2.92721 18.5275C3.17894 18.2758 3.49967 18.1044 3.84884 18.0349C4.19801 17.9655 4.55992 18.0011 4.88883 18.1373C5.21774 18.2736 5.49886 18.5043 5.69665 18.8003C5.89443 19.0963 6 19.4442 6 19.8002C6 20.2776 5.81036 20.7354 5.47279 21.073C5.13523 21.4105 4.67739 21.6001 4.2 21.6001ZM19.8 19.2003C19.444 19.2003 19.096 19.0947 18.8 18.8969C18.504 18.6992 18.2733 18.418 18.137 18.0892C18.0008 17.7603 17.9651 17.3984 18.0346 17.0492C18.104 16.7001 18.2755 16.3794 18.5272 16.1276C18.7789 15.8759 19.0997 15.7045 19.4488 15.6351C19.798 15.5656 20.1599 15.6013 20.4888 15.7375C20.8177 15.8737 21.0989 16.1044 21.2966 16.4004C21.4944 16.6964 21.6 17.0444 21.6 17.4004C21.6 17.8777 21.4104 18.3355 21.0728 18.6731C20.7352 19.0106 20.2774 19.2003 19.8 19.2003ZM21.6 6.169L8.4 8.19689V4.59709L21.6 2.60521V6.169Z" fill="white"/>
</svg>
