<svg width="32" height="29" viewBox="0 0 32 29" fill="none" xmlns="http://www.w3.org/2000/svg">
<path d="M10.2962 23.4967L15.9992 20.1274L21.7022 23.5411L20.2086 17.157L25.2326 12.901L18.6244 12.3247L15.9992 6.29535L13.374 12.2804L6.76582 12.8567L11.7899 17.157L10.2962 23.4967ZM15.9992 24.2947L8.48577 28.7281C8.15385 28.935 7.80684 29.0236 7.44475 28.9941C7.08265 28.9645 6.76582 28.8463 6.49425 28.6394C6.22268 28.4325 6.01146 28.1742 5.86058 27.8645C5.70971 27.5547 5.67954 27.2071 5.77006 26.8217L7.76158 18.4427L1.10809 12.8124C0.806349 12.5464 0.618059 12.2431 0.543226 11.9026C0.468394 11.5622 0.490723 11.23 0.610214 10.906C0.729705 10.5821 0.910752 10.3161 1.15336 10.108C1.39596 9.89995 1.72788 9.76695 2.14912 9.70902L10.9299 8.95535L14.3245 1.064C14.4754 0.709335 14.7096 0.443334 15.027 0.266C15.3444 0.0886666 15.6685 0 15.9992 0C16.3299 0 16.654 0.0886666 16.9715 0.266C17.2889 0.443334 17.523 0.709335 17.6739 1.064L21.0686 8.95535L29.8493 9.70902C30.2718 9.76814 30.6037 9.90113 30.8451 10.108C31.0865 10.3149 31.2675 10.5809 31.3882 10.906C31.5089 11.2311 31.5319 11.5639 31.457 11.9044C31.3822 12.2449 31.1933 12.5475 30.8904 12.8124L24.2369 18.4427L26.2284 26.8217C26.3189 27.206 26.2887 27.5535 26.1379 27.8645C25.987 28.1754 25.7758 28.4337 25.5042 28.6394C25.2326 28.8451 24.9158 28.9633 24.5537 28.9941C24.1916 29.0248 23.8446 28.9361 23.5127 28.7281L15.9992 24.2947Z" fill="white"/>
</svg>
