<svg width="31" height="29" viewBox="0 0 31 29" fill="none" xmlns="http://www.w3.org/2000/svg">
<path d="M9.79624 23.4967L15.4992 20.1274L21.2022 23.5411L19.7086 17.157L24.7326 12.901L18.1244 12.3247L15.4992 6.29535L12.874 12.2804L6.26582 12.8567L11.2899 17.157L9.79624 23.4967ZM15.4992 24.2947L7.98577 28.7281C7.65385 28.935 7.30684 29.0236 6.94475 28.9941C6.58265 28.9645 6.26582 28.8463 5.99425 28.6394C5.72268 28.4325 5.51146 28.1742 5.36058 27.8645C5.20971 27.5547 5.17954 27.2071 5.27006 26.8217L7.26158 18.4427L0.608094 12.8124C0.306349 12.5464 0.118059 12.2431 0.0432265 11.9026C-0.0316064 11.5622 -0.00927734 11.23 0.110214 10.906C0.229705 10.5821 0.410752 10.3161 0.653355 10.108C0.895959 9.89995 1.22788 9.76695 1.64912 9.70902L10.4299 8.95535L13.8245 1.064C13.9754 0.709335 14.2096 0.443334 14.527 0.266C14.8444 0.0886666 15.1685 0 15.4992 0C15.8299 0 16.154 0.0886666 16.4715 0.266C16.7889 0.443334 17.023 0.709335 17.1739 1.064L20.5686 8.95535L29.3493 9.70902C29.7718 9.76814 30.1037 9.90113 30.3451 10.108C30.5865 10.3149 30.7675 10.5809 30.8882 10.906C31.0089 11.2311 31.0319 11.5639 30.957 11.9044C30.8822 12.2449 30.6933 12.5475 30.3904 12.8124L23.7369 18.4427L25.7284 26.8217C25.8189 27.206 25.7887 27.5535 25.6379 27.8645C25.487 28.1754 25.2758 28.4337 25.0042 28.6394C24.7326 28.8451 24.4158 28.9633 24.0537 28.9941C23.6916 29.0248 23.3446 28.9361 23.0127 28.7281L15.4992 24.2947Z" fill="url(#paint0_linear_1372_7240)"/>
<defs>
<linearGradient id="paint0_linear_1372_7240" x1="34.72" y1="-2.755" x2="-3.11851" y2="34.2705" gradientUnits="userSpaceOnUse">
<stop stop-color="#FF3740"/>
<stop offset="1" stop-color="#FD9900"/>
</linearGradient>
</defs>
</svg>
