<svg width="25" height="24" viewBox="0 0 25 24" fill="none" xmlns="http://www.w3.org/2000/svg">
<path d="M3.5 21.2571H8V14.4C8 14.0114 8.144 13.6859 8.432 13.4235C8.72 13.1611 9.076 13.0295 9.5 13.0286H15.5C15.925 13.0286 16.2815 13.1602 16.5695 13.4235C16.8575 13.6869 17.001 14.0123 17 14.4V21.2571H21.5V8.91428L12.5 2.74286L3.5 8.91428V21.2571ZM0.5 21.2571V8.91428C0.5 8.48 0.6065 8.06857 0.8195 7.68C1.0325 7.29143 1.326 6.97143 1.7 6.72L10.7 0.548571C11.225 0.182857 11.825 0 12.5 0C13.175 0 13.775 0.182857 14.3 0.548571L23.3 6.72C23.675 6.97143 23.969 7.29143 24.182 7.68C24.395 8.06857 24.501 8.48 24.5 8.91428V21.2571C24.5 22.0114 24.206 22.6574 23.618 23.195C23.03 23.7326 22.324 24.0009 21.5 24H15.5C15.075 24 14.719 23.8683 14.432 23.605C14.145 23.3417 14.001 23.0162 14 22.6286V15.7714H11V22.6286C11 23.0171 10.856 23.3431 10.568 23.6064C10.28 23.8697 9.924 24.0009 9.5 24H3.5C2.675 24 1.969 23.7317 1.382 23.195C0.795 22.6583 0.501 22.0123 0.5 21.2571Z" fill="url(#paint0_linear_1372_2427)"/>
<defs>
<linearGradient id="paint0_linear_1372_2427" x1="27.38" y1="-2.28" x2="-3.82" y2="26.28" gradientUnits="userSpaceOnUse">
<stop stop-color="#FF3740"/>
<stop offset="1" stop-color="#FD9900"/>
</linearGradient>
</defs>
</svg>
