<svg width="25" height="24" viewBox="0 0 25 24" fill="none" xmlns="http://www.w3.org/2000/svg">
<path d="M24.08 0.289336C23.9492 0.177089 23.7957 0.0943383 23.6301 0.0467143C23.4644 -0.000909638 23.2905 -0.0122888 23.12 0.0133516L7.52 2.41322C7.23591 2.45631 6.97672 2.59991 6.78954 2.81791C6.60236 3.03591 6.49962 3.31383 6.5 3.60115V16.0204C5.93932 15.7466 5.32399 15.603 4.7 15.6005C3.86932 15.6005 3.05729 15.8468 2.36661 16.3083C1.67592 16.7697 1.1376 17.4256 0.819708 18.1931C0.50182 18.9605 0.418646 19.8049 0.580704 20.6196C0.742762 21.4342 1.14277 22.1826 1.73015 22.7699C2.31753 23.3573 3.0659 23.7573 3.88062 23.9193C4.69534 24.0813 5.53982 23.9982 6.30727 23.6803C7.07472 23.3624 7.73067 22.8241 8.19217 22.1335C8.65368 21.4429 8.9 20.6309 8.9 19.8002V10.6328L22.1 8.60487V13.6206C21.5393 13.3467 20.924 13.2032 20.3 13.2006C19.4693 13.2006 18.6573 13.4469 17.9666 13.9084C17.2759 14.3699 16.7376 15.0258 16.4197 15.7932C16.1018 16.5606 16.0186 17.405 16.1807 18.2197C16.3428 19.0344 16.7428 19.7827 17.3302 20.3701C17.9175 20.9574 18.6659 21.3574 19.4806 21.5194C20.2953 21.6815 21.1398 21.5983 21.9073 21.2804C22.6747 20.9626 23.3307 20.4243 23.7922 19.7336C24.2537 19.043 24.5 18.231 24.5 17.4004V1.20128C24.5 1.02797 24.4625 0.856701 24.39 0.699274C24.3175 0.541846 24.2117 0.401993 24.08 0.289336ZM4.7 21.6001C4.344 21.6001 3.99598 21.4946 3.69998 21.2968C3.40397 21.099 3.17326 20.8179 3.03702 20.489C2.90078 20.1601 2.86513 19.7982 2.93459 19.4491C3.00404 19.0999 3.17547 18.7792 3.42721 18.5275C3.67894 18.2758 3.99967 18.1044 4.34884 18.0349C4.69801 17.9655 5.05992 18.0011 5.38883 18.1373C5.71774 18.2736 5.99886 18.5043 6.19665 18.8003C6.39443 19.0963 6.5 19.4442 6.5 19.8002C6.5 20.2776 6.31036 20.7354 5.97279 21.073C5.63523 21.4105 5.17739 21.6001 4.7 21.6001ZM20.3 19.2003C19.944 19.2003 19.596 19.0947 19.3 18.8969C19.004 18.6992 18.7733 18.418 18.637 18.0892C18.5008 17.7603 18.4651 17.3984 18.5346 17.0492C18.604 16.7001 18.7755 16.3794 19.0272 16.1276C19.2789 15.8759 19.5997 15.7045 19.9488 15.6351C20.298 15.5656 20.6599 15.6013 20.9888 15.7375C21.3177 15.8737 21.5989 16.1044 21.7966 16.4004C21.9944 16.6964 22.1 17.0444 22.1 17.4004C22.1 17.8777 21.9104 18.3355 21.5728 18.6731C21.2352 19.0106 20.7774 19.2003 20.3 19.2003ZM22.1 6.169L8.9 8.19689V4.59709L22.1 2.60521V6.169Z" fill="url(#paint0_linear_1372_2342)"/>
<defs>
<linearGradient id="paint0_linear_1372_2342" x1="27.38" y1="-2.28" x2="-3.82" y2="26.28" gradientUnits="userSpaceOnUse">
<stop stop-color="#FF3740"/>
<stop offset="1" stop-color="#FD9900"/>
</linearGradient>
</defs>
</svg>
