<svg width="22" height="22" viewBox="0 0 22 22" fill="none" xmlns="http://www.w3.org/2000/svg">
<path d="M11.0618 10.8958C9.60467 10.8958 8.35729 10.3769 7.31965 9.33931C6.28201 8.30167 5.76319 7.05429 5.76319 5.59718C5.76319 4.14006 6.28201 2.89269 7.31965 1.85505C8.35729 0.817404 9.60467 0.298584 11.0618 0.298584C12.5189 0.298584 13.7663 0.817404 14.8039 1.85505C15.8416 2.89269 16.3604 4.14006 16.3604 5.59718C16.3604 7.05429 15.8416 8.30167 14.8039 9.33931C13.7663 10.3769 12.5189 10.8958 11.0618 10.8958ZM0.4646 21.493V17.7839C0.4646 17.0333 0.657777 16.3434 1.04413 15.7142C1.43049 15.085 1.94379 14.6048 2.58404 14.2736C3.95284 13.5892 5.34372 13.0759 6.75668 12.7337C8.16963 12.3915 9.60467 12.2204 11.0618 12.2204C12.5189 12.2204 13.9539 12.3915 15.3669 12.7337C16.7798 13.0759 18.1707 13.5892 19.5395 14.2736C20.1798 14.6048 20.6931 15.085 21.0794 15.7142C21.4658 16.3434 21.659 17.0333 21.659 17.7839V21.493H0.4646ZM3.1139 18.8437H19.0097V17.7839C19.0097 17.5411 18.949 17.3203 18.8275 17.1216C18.7061 16.9229 18.546 16.7684 18.3473 16.658C17.1552 16.0619 15.9519 15.6148 14.7377 15.3168C13.5234 15.0187 12.2981 14.8697 11.0618 14.8697C9.82545 14.8697 8.60015 15.0187 7.38588 15.3168C6.17162 15.6148 4.9684 16.0619 3.77622 16.658C3.57752 16.7684 3.41746 16.9229 3.29603 17.1216C3.17461 17.3203 3.1139 17.5411 3.1139 17.7839V18.8437ZM11.0618 8.24647C11.7903 8.24647 12.414 7.98706 12.9328 7.46824C13.4517 6.94942 13.7111 6.32573 13.7111 5.59718C13.7111 4.86862 13.4517 4.24493 12.9328 3.72611C12.414 3.20729 11.7903 2.94788 11.0618 2.94788C10.3332 2.94788 9.70954 3.20729 9.19072 3.72611C8.6719 4.24493 8.41249 4.86862 8.41249 5.59718C8.41249 6.32573 8.6719 6.94942 9.19072 7.46824C9.70954 7.98706 10.3332 8.24647 11.0618 8.24647Z" fill="white"/>
</svg>
