<svg width="14" height="12" viewBox="0 0 14 12" fill="none" xmlns="http://www.w3.org/2000/svg">
<path d="M9.98179 0C9.37185 0.00916158 8.7752 0.173583 8.25212 0.476661C7.72903 0.779739 7.29803 1.21074 7.00262 1.72614C6.70722 1.21074 6.27621 0.779739 5.75313 0.476661C5.23004 0.173583 4.6334 0.00916158 4.02346 0C3.05113 0.0407948 2.13505 0.451545 1.47534 1.14251C0.81563 1.83348 0.465924 2.7485 0.502622 3.68766C0.502622 7.23148 6.43712 11.3245 6.68954 11.4982L7.00262 11.7121L7.31571 11.4982C7.56812 11.3256 13.5026 7.23148 13.5026 3.68766C13.5393 2.7485 13.1896 1.83348 12.5299 1.14251C11.8702 0.451545 10.9541 0.0407948 9.98179 0ZM7.00262 10.4243C5.24058 9.15325 1.58596 6.03051 1.58596 3.68766C1.54893 3.02583 1.7844 2.3767 2.24103 1.88186C2.69765 1.38702 3.33837 1.08661 4.02346 1.04615C4.70854 1.08661 5.34926 1.38702 5.80588 1.88186C6.26251 2.3767 6.49798 3.02583 6.46096 3.68766H7.54429C7.50726 3.02583 7.74274 2.3767 8.19936 1.88186C8.65598 1.38702 9.29671 1.08661 9.98179 1.04615C10.6669 1.08661 11.3076 1.38702 11.7642 1.88186C12.2208 2.3767 12.4563 3.02583 12.4193 3.68766C12.4193 6.03155 8.76466 9.15325 7.00262 10.4243Z" fill="#FF0000"/>
</svg>
