<svg width="15" height="12" viewBox="0 0 15 12" fill="none" xmlns="http://www.w3.org/2000/svg">
<path d="M1.67057 11.9996H0.503906V7.99963C0.504986 6.80705 1.0579 5.66352 2.04135 4.81991C3.02479 3.9763 4.35848 3.50149 5.74982 3.49963L8.57491 3.42263V0.215637L13.9923 4.86213C14.3204 5.14342 14.5047 5.52488 14.5047 5.92263C14.5047 6.32038 14.3204 6.70184 13.9923 6.98313L8.57607 11.6296V8.42263L5.74982 8.49963C4.66785 8.50135 3.63082 8.87076 2.86613 9.52687C2.10144 10.183 1.6715 11.0722 1.67057 11.9996ZM5.75391 7.49963L9.74507 7.42263V9.21563L13.1716 6.27613C13.2809 6.18237 13.3424 6.05521 13.3424 5.92263C13.3424 5.79005 13.2809 5.66289 13.1716 5.56913L9.74216 2.62963V4.42263L5.74982 4.49963C4.66714 4.50043 3.62907 4.86943 2.86349 5.52563C2.09792 6.18184 1.66742 7.07162 1.66649 7.99963V9.17413C2.15772 8.65107 2.77957 8.2291 3.48625 7.93931C4.19292 7.64951 4.96643 7.49927 5.74982 7.49963H5.75391Z" fill="#B3B3B3"/>
</svg>
