<svg width="27" height="28" viewBox="0 0 27 28" fill="none" xmlns="http://www.w3.org/2000/svg">
<path d="M8.38881 12.571C8.76412 12.571 9.07873 12.4441 9.33262 12.1902C9.58651 11.9363 9.71345 11.6217 9.71345 11.2464C9.71345 10.871 9.58651 10.5564 9.33262 10.3025C9.07873 10.0487 8.76412 9.92171 8.38881 9.92171C8.01349 9.92171 7.69888 10.0487 7.44499 10.3025C7.1911 10.5564 7.06416 10.871 7.06416 11.2464C7.06416 11.6217 7.1911 11.9363 7.44499 12.1902C7.69888 12.4441 8.01349 12.571 8.38881 12.571ZM13.6874 12.571C14.0627 12.571 14.3773 12.4441 14.6312 12.1902C14.8851 11.9363 15.012 11.6217 15.012 11.2464C15.012 10.871 14.8851 10.5564 14.6312 10.3025C14.3773 10.0487 14.0627 9.92171 13.6874 9.92171C13.3121 9.92171 12.9975 10.0487 12.7436 10.3025C12.4897 10.5564 12.3627 10.871 12.3627 11.2464C12.3627 11.6217 12.4897 11.9363 12.7436 12.1902C12.9975 12.4441 13.3121 12.571 13.6874 12.571ZM18.986 12.571C19.3613 12.571 19.6759 12.4441 19.9298 12.1902C20.1837 11.9363 20.3106 11.6217 20.3106 11.2464C20.3106 10.871 20.1837 10.5564 19.9298 10.3025C19.6759 10.0487 19.3613 9.92171 18.986 9.92171C18.6107 9.92171 18.2961 10.0487 18.0422 10.3025C17.7883 10.5564 17.6613 10.871 17.6613 11.2464C17.6613 11.6217 17.7883 11.9363 18.0422 12.1902C18.2961 12.4441 18.6107 12.571 18.986 12.571ZM0.440918 27.1421V3.29847C0.440918 2.56991 0.700328 1.94622 1.21915 1.4274C1.73797 0.90858 2.36166 0.64917 3.09021 0.64917H24.2846C25.0131 0.64917 25.6368 0.90858 26.1556 1.4274C26.6745 1.94622 26.9339 2.56991 26.9339 3.29847V19.1942C26.9339 19.9228 26.6745 20.5465 26.1556 21.0653C25.6368 21.5841 25.0131 21.8435 24.2846 21.8435H5.73951L0.440918 27.1421ZM4.61356 19.1942H24.2846V3.29847H3.09021V20.6845L4.61356 19.1942Z" fill="white"/>
</svg>
