<svg width="31" height="30" viewBox="0 0 31 30" fill="none" xmlns="http://www.w3.org/2000/svg">
<path d="M30.4768 3.59603C29.5235 4.12003 28.4704 4.43714 27.4424 4.64658C27.9302 4.54737 28.647 3.47394 28.9345 3.03981C29.3727 2.37845 29.7364 1.6238 29.9408 0.808968C29.9674 0.745375 29.9876 0.665674 29.9346 0.617344C29.869 0.585971 29.8264 0.602092 29.774 0.633464C28.626 1.38047 27.4396 1.92227 26.1765 2.30637C26.0718 2.33774 25.9936 2.30637 25.928 2.22582C25.824 2.08252 25.7249 1.94687 25.614 1.83579C25.0829 1.2872 24.5134 0.85645 23.8714 0.538487C23.0283 0.121319 22.1071 -0.0558839 21.1992 0.0153399C20.315 0.0857158 19.4475 0.38757 18.6638 0.885289C17.878 1.38386 17.1766 2.07829 16.6176 2.91517C16.0405 3.78172 15.6148 4.80344 15.3963 5.88791C15.187 6.93422 15.2037 7.96867 15.3321 9.026C15.3517 9.20152 15.3384 9.22526 15.2079 9.20152C10.2676 8.30783 6.17246 6.16094 2.84777 1.55768C2.70331 1.35757 2.62516 1.35756 2.50722 1.57293C1.05214 4.22262 1.75768 8.47826 3.57495 10.57C3.81782 10.8498 4.06629 11.1279 4.33498 11.3823C4.23658 11.4069 3.02783 11.2484 1.94961 10.57C1.80584 10.459 1.73258 10.5234 1.72002 10.7218C1.70676 11.0084 1.72698 11.2721 1.75908 11.5824C2.03823 14.2677 3.56939 16.7512 5.66582 17.7212C5.91427 17.8484 6.18993 17.9595 6.45792 18.0155C5.98057 18.1427 5.48857 18.2334 4.11864 18.1028C3.94836 18.0638 3.88344 18.1672 3.94834 18.3665C4.97841 21.7742 7.19904 22.7892 8.86348 23.3666C9.0861 23.4141 9.30946 23.4141 9.53278 23.4776C9.51882 23.5022 9.50553 23.5022 9.49227 23.526C8.94094 24.5477 7.02739 25.3083 6.1362 25.6864C4.51572 26.3749 2.75079 26.6844 1.0382 26.4792C0.764631 26.4301 0.706712 26.4343 0.632737 26.4792C0.557366 26.536 0.622268 26.6157 0.710899 26.7022C1.05844 26.9812 1.41225 27.2279 1.77305 27.467C2.86035 28.1674 3.9944 28.7253 5.18079 29.123C11.3047 31.1775 18.2025 29.6673 22.8008 24.117C26.4116 19.7579 27.6776 13.7463 27.6776 7.72786C27.6776 7.49214 27.9065 7.36241 28.0419 7.23777C28.9819 6.38054 29.7398 5.35373 30.4405 4.20821C30.5982 3.95045 30.5996 3.72152 30.5996 3.6274C30.5996 3.61129 30.5996 3.59603 30.5996 3.59603C30.5996 3.49937 30.5982 3.52904 30.4768 3.59603Z" fill="#E8E8E8"/>
</svg>
